<svg width="168" height="77" viewBox="0 0 168 77" fill="none" xmlns="http://www.w3.org/2000/svg">
<path d="M44 63.9672C44 60.7517 46.7957 58.2504 49.9912 58.6067L146.197 69.3335C158.418 70.6963 168.757 60.3896 167.435 48.1641C166.059 35.4637 152.907 27.6142 141.075 32.4347L51.429 68.9619C47.8815 70.4074 44 67.7977 44 63.9672Z" fill="url(#paint0_linear_6_14)"/>
<path d="M29.2955 28.8409C29.1136 27.0076 28.3333 25.5833 26.9545 24.5682C25.5758 23.553 23.7045 23.0455 21.3409 23.0455C19.7348 23.0455 18.3788 23.2727 17.2727 23.7273C16.1667 24.1667 15.3182 24.7803 14.7273 25.5682C14.1515 26.3561 13.8636 27.25 13.8636 28.25C13.8333 29.0833 14.0076 29.8106 14.3864 30.4318C14.7803 31.053 15.3182 31.5909 16 32.0455C16.6818 32.4848 17.4697 32.8712 18.3636 33.2045C19.2576 33.5227 20.2121 33.7955 21.2273 34.0227L25.4091 35.0227C27.4394 35.4773 29.303 36.0833 31 36.8409C32.697 37.5985 34.1667 38.5303 35.4091 39.6364C36.6515 40.7424 37.6136 42.0455 38.2955 43.5455C38.9924 45.0455 39.3485 46.7652 39.3636 48.7045C39.3485 51.553 38.6212 54.0227 37.1818 56.1136C35.7576 58.1894 33.697 59.803 31 60.9545C28.3182 62.0909 25.0833 62.6591 21.2955 62.6591C17.5379 62.6591 14.2652 62.0833 11.4773 60.9318C8.70455 59.7803 6.53788 58.0758 4.97727 55.8182C3.43182 53.5455 2.62121 50.7348 2.54545 47.3864H12.0682C12.1742 48.947 12.6212 50.25 13.4091 51.2955C14.2121 52.3258 15.2803 53.1061 16.6136 53.6364C17.9621 54.1515 19.4848 54.4091 21.1818 54.4091C22.8485 54.4091 24.2955 54.1667 25.5227 53.6818C26.7652 53.197 27.7273 52.5227 28.4091 51.6591C29.0909 50.7955 29.4318 49.803 29.4318 48.6818C29.4318 47.6364 29.1212 46.7576 28.5 46.0455C27.8939 45.3333 27 44.7273 25.8182 44.2273C24.6515 43.7273 23.2197 43.2727 21.5227 42.8636L16.4545 41.5909C12.5303 40.6364 9.43182 39.1439 7.15909 37.1136C4.88636 35.0833 3.75758 32.3485 3.77273 28.9091C3.75758 26.0909 4.50758 23.6288 6.02273 21.5227C7.55303 19.4167 9.65152 17.7727 12.3182 16.5909C14.9848 15.4091 18.0152 14.8182 21.4091 14.8182C24.8636 14.8182 27.8788 15.4091 30.4545 16.5909C33.0455 17.7727 35.0606 19.4167 36.5 21.5227C37.9394 23.6288 38.6818 26.0682 38.7273 28.8409H29.2955ZM61.5739 62.6818C58.0436 62.6818 54.9905 61.9318 52.4148 60.4318C49.8542 58.9167 47.8769 56.8106 46.483 54.1136C45.089 51.4015 44.392 48.2576 44.392 44.6818C44.392 41.0758 45.089 37.9242 46.483 35.2273C47.8769 32.5152 49.8542 30.4091 52.4148 28.9091C54.9905 27.3939 58.0436 26.6364 61.5739 26.6364C65.1042 26.6364 68.1496 27.3939 70.7102 28.9091C73.286 30.4091 75.2708 32.5152 76.6648 35.2273C78.0587 37.9242 78.7557 41.0758 78.7557 44.6818C78.7557 48.2576 78.0587 51.4015 76.6648 54.1136C75.2708 56.8106 73.286 58.9167 70.7102 60.4318C68.1496 61.9318 65.1042 62.6818 61.5739 62.6818ZM61.6193 55.1818C63.2254 55.1818 64.5663 54.7273 65.642 53.8182C66.7178 52.8939 67.5284 51.6364 68.0739 50.0455C68.6345 48.4545 68.9148 46.6439 68.9148 44.6136C68.9148 42.5833 68.6345 40.7727 68.0739 39.1818C67.5284 37.5909 66.7178 36.3333 65.642 35.4091C64.5663 34.4848 63.2254 34.0227 61.6193 34.0227C59.9981 34.0227 58.6345 34.4848 57.5284 35.4091C56.4375 36.3333 55.6117 37.5909 55.0511 39.1818C54.5057 40.7727 54.233 42.5833 54.233 44.6136C54.233 46.6439 54.5057 48.4545 55.0511 50.0455C55.6117 51.6364 56.4375 52.8939 57.5284 53.8182C58.6345 54.7273 59.9981 55.1818 61.6193 55.1818ZM94.733 15.4545V62H85.0511V15.4545H94.733ZM112.17 15.4545V62H102.489V15.4545H112.17ZM117.381 15.4545H128.403L139.017 35.5H139.472L150.085 15.4545H161.108L144.131 45.5455V62H134.358V45.5455L117.381 15.4545Z" fill="white"/>
<defs>
<linearGradient id="paint0_linear_6_14" x1="508.408" y1="56.6162" x2="457.692" y2="214.612" gradientUnits="userSpaceOnUse">
<stop stop-color="#DF8908"/>
<stop offset="1" stop-color="#B415FF"/>
</linearGradient>
</defs>
</svg>
